<svg id="Слой_1" data-name="Слой 1" xmlns="http://www.w3.org/2000/svg" viewBox="0 0 250.12 206.21"><defs><style>.cls-1{fill:#000047;}.cls-2{fill:#f79005;}</style></defs><title>1</title><path class="cls-1" d="M124.9,228.1H22.06c-14.66,0-22.21-7.84-22.18-22.26q.15-86.64,0-173.3c0-10.24.39-10.63,10.71-10.63H216.32c9.74,0,10,.27,10,10,0,8.2.18,16.4-.08,24.59-.1,3.43,1.13,4.51,4.43,4.13a35.08,35.08,0,0,1,4.81,0c9.44.18,14.42,5,14.42,14.11q0,64.11,0,128.21c0,3.66.53,7.31-.73,11-3.14,9.15-9.69,14.17-19.61,14.18Q177.23,228.14,124.9,228.1ZM191.05,60.37c6.81.07,13.62.05,20.42.25,2.72.07,4-.61,3.9-3.55-.17-7-.17-14,0-21,.07-3-1.19-3.59-3.92-3.51-6.8.22-13.6.21-20.41.29a15.42,15.42,0,0,0-1.78-.21c-57.92,0-115.83,0-173.75-.14-4.7,0-4.52,2.13-4.51,5.31q.08,83.12.05,166.22c0,2.13.26,4.27.43,6.41.37,4.5,3.32,6.72,7.52,6.85,4.49.14,7.69-2.19,8.37-6.74a64.66,64.66,0,0,0,.56-9.33Q28,140.6,28,80c0-1.75-.06-3.51,0-5.26.46-9.58,5.27-14.13,15.18-14.17,14.83-.07,29.66,0,44.49,0Zm21.77,11c-2-.07-4-.2-6-.2-53.51,0-107,.07-160.54-.13-5.66,0-7.49,1.32-7.45,7.06.25,40,.14,80,.12,120,0,6.37.79,12.82-2,19.36,23,0,45.4,0,67.84,0q53.81-.07,107.61-.2c4.81.07,9.62.2,14.43.2,9.12,0,12.06-2.46,12.09-11.4.14-43.54,0-87.07.12-130.61,0-3.37-1.27-4.43-4.6-4.32C227.25,71.38,220,71.34,212.82,71.41Z" transform="translate(0.12 -21.9)"/><path class="cls-2" d="M212.42,217.28c.14-1.94.4-3.87.4-5.81q0-70,0-140.06c7.22-.07,14.44,0,21.65-.26,3.33-.11,4.61.95,4.6,4.32-.08,43.54,0,87.07-.12,130.61,0,8.94-3,11.38-12.09,11.4C222,217.48,217.23,217.35,212.42,217.28Z" transform="translate(0.12 -21.9)"/><path class="cls-1" d="M137.7,186.2q-27.07,0-54.14,0c-4.08,0-8.17-.22-8-5.47.17-4.65,3.9-5.21,7.82-5.21q54.13,0,108.28,0c4.13,0,8,.5,7.95,5.64-.08,4.92-4,5-7.8,5Q164.77,186.17,137.7,186.2Z" transform="translate(0.12 -21.9)"/><path class="cls-1" d="M137.66,114.64q-27.07,0-54.15,0c-3.8,0-7.75,0-7.92-4.93-.17-5.07,3.65-5.74,7.85-5.74q54.13,0,108.28,0c4.16,0,8,.52,7.91,5.66-.12,4.9-4,5-7.83,5Q164.73,114.6,137.66,114.64Z" transform="translate(0.12 -21.9)"/><path class="cls-1" d="M137.74,149.73c-18.05,0-36.1,0-54.15,0-4.09,0-8.15-.22-8-5.45.13-4.65,3.83-5.22,7.78-5.22q54.15.06,108.29,0c4.13,0,8.07.39,8,5.56-.07,4.87-3.89,5.11-7.76,5.1C173.84,149.7,155.79,149.73,137.74,149.73Z" transform="translate(0.12 -21.9)"/></svg>