<svg id="Слой_1" data-name="Слой 1" xmlns="http://www.w3.org/2000/svg" viewBox="0 0 250 175.59"><defs><style>.cls-1{fill:#000047;}.cls-2{fill:#f79005;}</style></defs><title>2</title><path class="cls-1" d="M83.88,90.22c-.41-11.3-.15-22.12,5.74-32.14,9-15.33,28-23.84,45.73-19.93,17.19,3.81,30.88,19.2,32.44,36.68,1.1,12.27,1.93,24.63-1.22,36.68-5.35,20.42-24.65,33-46.33,30.58C101,140,84.7,122.07,83.9,101.93,83.74,98,83.88,94,83.88,90.22Zm39.8,44.08c18,2.5,35.76-12.83,36.85-32.25a236.15,236.15,0,0,0,0-25c-1-18.59-17.11-32.84-35.77-31.95-14.91.5-27.46,9.68-31.57,23.83-3.26,11.21-1.78,22.83-1.33,34.25C92.5,119.89,106.92,133.66,123.68,134.3Z" transform="translate(0 -37.21)"/><path class="cls-1" d="M30.89,154.83c5.65,0,11.31-.06,17,0,2,0,3.5-.18,3.9-2.64,1.23-7.52,6.66-11.35,13.11-13.65s13.05-3.8,19.6-5.62c2.54-.71,4.68-.4,5.41,2.62s-1.18,4.06-3.7,4.73c-5.92,1.59-11.9,3.07-17.69,5.06-7.66,2.63-9.54,5.63-9.54,13.69,0,3.67-.1,7.33,0,11,.23,7.08,4.09,11.09,11.17,11.37,5.15.21,10.3.1,15.46,0,2.71,0,4.68.86,4.66,3.86s-2,3.79-4.73,3.75c-5-.09-10,0-15,0-11.6-.11-19-7.43-19.18-19-.13-7.83-.13-7.83-7.94-7.83-10.13,0-20.27.06-30.41,0-8.13-.06-12.85-4.89-13-13.1,0-2.33,0-4.66,0-7-.12-6.25,2.78-10.4,8.58-12.61,2.64-1,5.22-2.15,7.83-3.19s5-1.39,6.24,1.77c1.16,3-.79,4.22-3.17,5.14s-4.61,1.88-6.91,2.82c-5.06,2.07-6.4,6.26-4.81,14.41,1,4.93,4.73,4.34,8.17,4.38C20.92,154.87,25.91,154.83,30.89,154.83Z" transform="translate(0 -37.21)"/><path class="cls-1" d="M171.18,141.94c-2-.7-4.06-1.38-6.08-2.11s-3.32-2.15-2.61-4.57c.66-2.25,2.14-3.51,4.46-2.81,7.45,2.23,15.18,3.59,22.27,7,5.5,2.6,9.73,6.38,10.66,12.81.3,2,1.31,2.68,3.34,2.66,11-.09,21.93,0,32.89-.05,3.87,0,5.8-2,5.86-5.87,0-2-.09-4,.05-6,.24-3.49-1.28-5.63-4.53-6.82-2.64-1-5.21-2.14-7.79-3.28-2.08-.92-3.18-2.38-2.24-4.75,1-2.54,2.89-3.07,5.24-2.13,3.53,1.42,7,2.93,10.5,4.48a9.7,9.7,0,0,1,2,1.48c4.37,3.59,6.2,14.72,3.63,22-2.06,5.81-6.11,8.27-13.73,8.28q-13.69,0-27.41,0c-7.43,0-7.44,0-7.49,7.27,0,3.19-.2,6.36-1.73,9.23-3.38,6.35-8.58,10.07-15.87,10.29-5.81.18-11.63,0-17.44.07-2.86.05-5.18-.67-5.14-3.91s2.6-3.72,5.33-3.71,5.29-.21,7.94-.33a25.82,25.82,0,0,0,10.86-.08,9.85,9.85,0,0,0,8.22-7.72C197.24,154.12,190.76,144.59,171.18,141.94Z" transform="translate(0 -37.21)"/><path class="cls-1" d="M19.14,100.7c-.87-9.49,1.6-18.93,10.55-25.81C37.77,68.68,46.8,67.58,56,71.38s14.92,10.88,16.1,21.08a86.56,86.56,0,0,1,.1,17.92c-1.31,14.31-13.24,25-27.1,24.48a27,27,0,0,1-25.92-25.93C19.05,106.61,19.14,104.27,19.14,100.7Zm7.7,0c0,3.56-.08,5.89,0,8.22a19,19,0,0,0,37.92.62,118.69,118.69,0,0,0,0-15c-.51-7.67-4.68-13.21-11.6-16.1s-13.61-1.85-19.58,3.06C27,86.89,26.29,94.15,26.84,100.65Z" transform="translate(0 -37.21)"/><path class="cls-1" d="M177.5,100.24c-1.19-11.13,2.61-21.31,14-27.69,16.89-9.5,38.51,2.8,39.09,22.18.14,4.66.1,9.32,0,14a26.54,26.54,0,0,1-53.06.41C177.43,106.62,177.5,104.13,177.5,100.24Zm45.65,1.8h-.32c0-2.66.21-5.34,0-8a18.48,18.48,0,0,0-17.68-17c-9.79-.39-18.18,5.9-19.73,15.37a56.21,56.21,0,0,0,.12,19.87c1.81,9.22,10,15.28,19.63,14.86a18.68,18.68,0,0,0,17.61-16.61C223.05,107.71,223,104.87,223.15,102Z" transform="translate(0 -37.21)"/><path class="cls-1" d="M124.69,154.84a29.05,29.05,0,0,1,29,28.7c.09,16-13.23,29.42-29.1,29.25a29.33,29.33,0,0,1-28.8-29.09A29,29,0,0,1,124.69,154.84Zm-21.14,29a21.23,21.23,0,0,0,42.46,0c.06-11.9-9.77-21.79-21.46-21.58A21.45,21.45,0,0,0,103.55,183.85Z" transform="translate(0 -37.21)"/><path class="cls-2" d="M171.18,141.94c19.58,2.65,26.06,12.18,21.18,31.37a9.85,9.85,0,0,1-8.22,7.72,25.82,25.82,0,0,1-10.86.08C180.69,170.73,179.6,150.38,171.18,141.94Z" transform="translate(0 -37.21)"/><path class="cls-2" d="M123.68,134.3c11.81-5.6,18.9-15,21-27.75a110.38,110.38,0,0,0,0-33.7c-1.82-12.54-9.54-21.15-19.88-27.71,18.66-.89,34.82,13.36,35.77,32a236.15,236.15,0,0,1,0,25C159.44,121.47,141.7,136.8,123.68,134.3Z" transform="translate(0 -37.21)"/><path class="cls-1" d="M139,183.32c-.07,3.3-2,4.43-4.64,4.18-4.24-.41-6.56.6-5.78,5.51.4,2.52-.59,4.84-3.57,5-3.3.15-4.39-2.21-4-5,.52-4.25-.72-6.14-5.3-5.49-2.69.38-5.22-.55-5-4s2.79-3.86,5.43-3.53c3.82.49,5.47-.74,4.91-4.79-.4-2.88.34-5.76,3.83-5.75s4.22,2.9,3.81,5.77c-.58,4.09,1.16,5.25,4.93,4.77C136.2,179.67,138.56,180.23,139,183.32Z" transform="translate(0 -37.21)"/></svg>