<svg id="Слой_1" data-name="Слой 1" xmlns="http://www.w3.org/2000/svg" viewBox="0 0 249.32 202.08"><defs><style>.cls-1{fill:#000047;}.cls-2{fill:#f79005;}</style></defs><title>3</title><path class="cls-1" d="M83.28,67.45c16.29,0,32.58,0,48.88,0,21.36.08,33,11.6,33,32.82.06,19.84.09,39.69,0,59.53-.1,20.76-11.9,32.75-32.66,32.5-6-.07-7.34,1.78-7,7.27.47,6.65,0,13.36.15,20,0,2.51-.56,4.63-2.78,5.88-2.45,1.38-4.35-.14-6.2-1.58-12-9.36-24.15-18.59-36-28.11a15.15,15.15,0,0,0-10.29-3.4c-14.2.06-28.43.43-42.58-.4C12.12,191.1.91,179.57.54,163.9q-.79-33.81,0-67.67C.86,79.78,12.91,68,29.39,67.64c18-.43,35.92-.1,53.89-.1Zm43.18,115.33c2.5.07,5,.2,7.49.19,13.64-.05,21.7-8.08,21.73-21.72,0-21.24.07-42.48,0-63.71,0-11.61-7.44-19.67-19-20.7-3.71-.33-7.48.07-11.22.14-31.93-.08-63.88-.4-95.81-.11C18,77,10.12,85.19,9.92,96.94q-.55,32.87,0,65.76c.21,12.63,8.72,20.23,21.37,20.27,14,.05,28,.14,42-.06a15.91,15.91,0,0,1,10.85,3.7c10.18,8.17,20.59,16,32.07,24.94v-18C116.17,183.33,116.17,183.33,126.46,182.78Z" transform="translate(-0.13 -23.96)"/><path class="cls-1" d="M221.59,33.77c-21.49-1-43-.59-64.47-.19-7.38.13-11.1,4.39-11.78,11.94-.35,3.94-.17,7.92-.22,11.89,0,2.86-1.05,4.94-4.24,5.06-3.39.13-5-1.75-5-5,0-4.81-.34-9.65.13-14.4A20.94,20.94,0,0,1,157.2,24q35.09-.18,70.17,0c11.73,0,20.5,7.77,21.28,19.38a355.9,355.9,0,0,1,0,47.55c-.76,11.37-9.32,19.28-20.69,19.21-4.88,0-6.1,1.46-5.64,6a73.1,73.1,0,0,1,0,11.27c-.29,5.33-3.62,7-7.95,3.82-6.72-4.94-13.44-9.93-19.76-15.37-4.85-4.18-9.92-6.42-16.38-5.57-3.44.44-7.18.2-7.23-4.57s3.89-4.52,7.21-4.87c7.8-.82,14.7.59,20.64,6.41,4.07,4,9,7.09,13.78,10.74,2.68-6.49-4.37-17.35,9-17.61,13.66,1.36,18-2.51,18-16.06q0-17.17,0-34.36C239.65,36.55,235,32.43,221.59,33.77Z" transform="translate(-0.13 -23.96)"/><path class="cls-2" d="M221.59,33.77C235,32.43,239.65,36.55,239.66,50q0,17.17,0,34.36c0,13.55-4.36,17.42-18,16.06,3.18-4.36,4.28-9.23,4.2-14.62-.17-12-.2-24.07,0-36.1C226,43.86,224.93,38.55,221.59,33.77Z" transform="translate(-0.13 -23.96)"/><path class="cls-2" d="M126.46,182.78c6.8-6.39,9.4-14.22,9.25-23.52-.3-19.55-.22-39.1,0-58.65.09-9.52-2.67-17.55-10.23-23.63,3.73-.07,7.5-.47,11.21-.14,11.56,1,19,9.09,19,20.7.09,21.23.06,42.47,0,63.71,0,13.64-8.09,21.67-21.73,21.72C131.45,183,129,182.85,126.46,182.78Z" transform="translate(-0.13 -23.96)"/><path class="cls-1" d="M81.05,149c-9.81,0-19.62,0-29.43,0-3.72,0-7.16-.72-7-5.11.16-4,3.54-4.53,7-4.52q29.43.06,58.87,0c3.66,0,7.15.61,7,5.11-.18,4-3.52,4.53-6.93,4.51C100.67,149,90.86,149,81.05,149Z" transform="translate(-0.13 -23.96)"/><path class="cls-1" d="M80.74,116.6c-9.8,0-19.6-.07-29.4,0-3.52,0-6.67-.69-6.73-4.66s3.23-4.71,6.67-4.7q29.72.06,59.42,0c3.36,0,6.73.35,6.7,4.61,0,4.08-3.14,4.77-6.64,4.73C100.75,116.54,90.75,116.6,80.74,116.6Z" transform="translate(-0.13 -23.96)"/></svg>