<svg id="Слой_1" data-name="Слой 1" xmlns="http://www.w3.org/2000/svg" viewBox="0 0 245.47 245.47"><defs><style>.cls-1{fill:#f79005;}.cls-2,.cls-3,.cls-4{fill:#000047;stroke:#000047;stroke-miterlimit:10;}.cls-2{stroke-width:3.51px;}.cls-3{stroke-width:2.5px;}.cls-4{stroke-width:2px;}</style></defs><title>4</title><path class="cls-1" d="M241.13,143.63c-5.59,59.46-54.65,103.47-109.57,98.3a92.89,92.89,0,0,1-24.63-5.76c57.34-8.54,104.28-58.9,110.39-123.75A145.92,145.92,0,0,0,211.71,56C232.61,77.89,244.34,109.6,241.13,143.63Z" transform="translate(-1.82 -2.26)"/><path class="cls-1" d="M144.52,120.93c1.31,13.67-7.86,25.72-20.47,26.93a21.62,21.62,0,0,1-5.81-.23c12.57-4.41,21-17.81,19.55-32.71a33.46,33.46,0,0,0-3.7-12.48A25.62,25.62,0,0,1,144.52,120.93Z" transform="translate(-1.82 -2.26)"/><path class="cls-2" d="M46.13,191.14a19.71,19.71,0,0,0-9.53,2.43A111.58,111.58,0,0,1,146.77,15.68a4.73,4.73,0,0,0,1.87-9.27A121.84,121.84,0,0,0,124.56,4,121,121,0,0,0,29.61,200a19.86,19.86,0,1,0,16.52-8.84Zm7.36,27.2a10.41,10.41,0,1,1,3-7.35A10.36,10.36,0,0,1,53.49,218.34Z" transform="translate(-1.82 -2.26)"/><path class="cls-2" d="M219.51,50a19.81,19.81,0,1,0-7,6.41,111.58,111.58,0,0,1-110,177.93,4.73,4.73,0,1,0-1.85,9.27A121.92,121.92,0,0,0,124.56,246,121,121,0,0,0,219.51,50Zm-23.87-3.66a10.39,10.39,0,0,1,14.7-14.7A10.4,10.4,0,0,1,203,49.41,10.29,10.29,0,0,1,195.64,46.36Z" transform="translate(-1.82 -2.26)"/><path class="cls-3" d="M110.65,183a3.37,3.37,0,0,0,3.37,3.37H135.1a3.37,3.37,0,0,0,3.37-3.37v-6.53a52.91,52.91,0,0,0,12.66-5.25l4.61,4.62a3.37,3.37,0,0,0,2.39,1,3.34,3.34,0,0,0,2.38-1l14.9-14.91a3.36,3.36,0,0,0,0-4.76l-4.61-4.61a53.08,53.08,0,0,0,5.25-12.66h6.51a3.37,3.37,0,0,0,3.37-3.37V114.43a3.37,3.37,0,0,0-3.37-3.37h-6.51A52.91,52.91,0,0,0,170.8,98.4l4.59-4.58a3.39,3.39,0,0,0,0-4.77l-14.92-14.9a3.37,3.37,0,0,0-4.77,0l-4.57,4.58a52.91,52.91,0,0,0-12.66-5.25V67a3.37,3.37,0,0,0-3.37-3.37H114A3.37,3.37,0,0,0,110.65,67v6.48A52.64,52.64,0,0,0,98,78.73l-4.57-4.58a3.37,3.37,0,0,0-4.77,0L73.74,89.05a3.37,3.37,0,0,0,0,4.77l4.58,4.58a52.88,52.88,0,0,0-5.24,12.66h-6.5a3.37,3.37,0,0,0-3.38,3.37v21.08a3.38,3.38,0,0,0,1,2.38,3.34,3.34,0,0,0,2.38,1h6.52a53,53,0,0,0,5.24,12.66l-4.61,4.61a3.36,3.36,0,0,0,0,4.76l14.9,14.91a3.34,3.34,0,0,0,2.38,1h0a3.37,3.37,0,0,0,2.38-1L98,171.21a53.08,53.08,0,0,0,12.66,5.25ZM99.32,164.12a3.38,3.38,0,0,0-4.22.45l-4.1,4.1L80.86,158.53l4.1-4.1a3.38,3.38,0,0,0,.45-4.22A46,46,0,0,1,79,134.8a3.36,3.36,0,0,0-3.29-2.66H69.94V117.8h5.79A3.36,3.36,0,0,0,79,115.14a46.18,46.18,0,0,1,6.39-15.42A3.36,3.36,0,0,0,85,95.51l-4.07-4.07L91,81.3l4.07,4.07a3.38,3.38,0,0,0,4.22.45,46,46,0,0,1,15.41-6.39,3.36,3.36,0,0,0,2.66-3.29V70.38h14.34v5.76a3.36,3.36,0,0,0,2.66,3.29,46,46,0,0,1,15.41,6.39,3.38,3.38,0,0,0,4.22-.45l4.07-4.07,10.14,10.14-4.07,4.07a3.36,3.36,0,0,0-.45,4.21,46.39,46.39,0,0,1,6.39,15.42,3.36,3.36,0,0,0,3.29,2.66h5.8v14.34h-5.8a3.36,3.36,0,0,0-3.29,2.66,46,46,0,0,1-6.39,15.41,3.38,3.38,0,0,0,.45,4.22l4.1,4.1-10.14,10.14-4.1-4.1a3.38,3.38,0,0,0-4.22-.45,46.25,46.25,0,0,1-15.41,6.39,3.36,3.36,0,0,0-2.66,3.29v5.82H117.39V173.8a3.36,3.36,0,0,0-2.66-3.29A46,46,0,0,1,99.32,164.12Z" transform="translate(-1.82 -2.26)"/><path class="cls-3" d="M152.42,125a27.86,27.86,0,1,0-27.86,27.86A27.89,27.89,0,0,0,152.42,125Zm-49,0a21.12,21.12,0,1,1,21.12,21.12A21.15,21.15,0,0,1,103.44,125Z" transform="translate(-1.82 -2.26)"/><path class="cls-2" d="M81.25,228.2a4.73,4.73,0,1,0,3.34,1.38A4.76,4.76,0,0,0,81.25,228.2Z" transform="translate(-1.82 -2.26)"/><path class="cls-4" d="M74.08,170.85a2.7,2.7,0,1,0,1.9.79A2.73,2.73,0,0,0,74.08,170.85Z" transform="translate(-1.82 -2.26)"/></svg>